HIERARCHY
ROOT hip
{
  OFFSET 0 90.174 2.4664
  CHANNELS 6 Xposition Yposition Zposition Zrotation Xrotation Yrotation
  JOINT abdomen
  {
    OFFSET 0 -1.186 -1.5018
    CHANNELS 6 Xposition Yposition Zposition Zrotation Xrotation Yrotation
    JOINT abdomen2
    {
      OFFSET 0 9.964 0.2134
      CHANNELS 6 Xposition Yposition Zposition Zrotation Xrotation Yrotation
      JOINT chest
      {
        OFFSET 0 13.134 -3.2573
        CHANNELS 6 Xposition Yposition Zposition Zrotation Xrotation Yrotation
        JOINT neck
        {
          OFFSET 0 20.686 -1.6905
          CHANNELS 6 Xposition Yposition Zposition Zrotation Xrotation Yrotation
          JOINT head
          {
            OFFSET 0 7.238 -0.1237
            CHANNELS 6 Xposition Yposition Zposition Zrotation Xrotation Yrotation
            End Site
            {
              OFFSET 0 0 0
            }
          }
        }
        JOINT lCollar
        {
          OFFSET 1.7069 20.075 5.0056
          CHANNELS 6 Xposition Yposition Zposition Zrotation Xrotation Yrotation
          JOINT lShldr
          {
            OFFSET 13.6458 -0.047 -4.849
            CHANNELS 6 Xposition Yposition Zposition Zrotation Xrotation Yrotation
            JOINT lForeArm
            {
              OFFSET 28.3255 -0.9759 2.2888
              CHANNELS 6 Xposition Yposition Zposition Zrotation Xrotation Yrotation
              JOINT lHand
              {
                OFFSET 22.1583 -0.53 10.8316
                CHANNELS 6 Xposition Yposition Zposition Zrotation Xrotation Yrotation
                JOINT lThumb1
                {
                  OFFSET 0.786 0.112 2.5817
                  CHANNELS 6 Xposition Yposition Zposition Zrotation Xrotation Yrotation
                  JOINT lThumb2
                  {
                    OFFSET 0.3601 -0.878 4.2331
                    CHANNELS 6 Xposition Yposition Zposition Zrotation Xrotation Yrotation
                    JOINT lThumb2_End
                    {
                      OFFSET 1.8127 -1.216 2.2227
                      CHANNELS 6 Xposition Yposition Zposition Zrotation Xrotation Yrotation
                      End Site
                      {
                        OFFSET 0.0181 -0.0122 0.0222
                      }
                    }
                  }
                }
                JOINT lCarpal1
                {
                  OFFSET 0.9571 1.114 1.7695
                  CHANNELS 6 Xposition Yposition Zposition Zrotation Xrotation Yrotation
                  JOINT lIndex1
                  {
                    OFFSET 4.1246 0.487 4.1451
                    CHANNELS 6 Xposition Yposition Zposition Zrotation Xrotation Yrotation
                    JOINT lIndex2
                    {
                      OFFSET 3.4052 -1.454 2.7682
                      CHANNELS 6 Xposition Yposition Zposition Zrotation Xrotation Yrotation
                      JOINT lIndex2_End
                      {
                        OFFSET 1.4531 -1.795 1.2713
                        CHANNELS 6 Xposition Yposition Zposition Zrotation Xrotation Yrotation
                        End Site
                        {
                          OFFSET 0.0145 -0.0179 0.0127
                        }
                      }
                    }
                  }
                  JOINT lMid1
                  {
                    OFFSET 5.6954 0.21 2.1184
                    CHANNELS 6 Xposition Yposition Zposition Zrotation Xrotation Yrotation
                    JOINT lMid2
                    {
                      OFFSET 3.9766 -1.54 2.3863
                      CHANNELS 6 Xposition Yposition Zposition Zrotation Xrotation Yrotation
                      JOINT lMid2_End
                      {
                        OFFSET 1.4042 -1.926 1.125
                        CHANNELS 6 Xposition Yposition Zposition Zrotation Xrotation Yrotation
                        End Site
                        {
                          OFFSET 0.014 -0.0193 0.0113
                        }
                      }
                    }
                  }
                }
                JOINT lCarpal2
                {
                  OFFSET 2.0956 0.66 -0.3894
                  CHANNELS 6 Xposition Yposition Zposition Zrotation Xrotation Yrotation
                  JOINT lRing1
                  {
                    OFFSET 5.0395 -0.09 2.4971
                    CHANNELS 6 Xposition Yposition Zposition Zrotation Xrotation Yrotation
                    JOINT lRing2
                    {
                      OFFSET 3.7921 -1.552 1.4806
                      CHANNELS 6 Xposition Yposition Zposition Zrotation Xrotation Yrotation
                      JOINT lRing2_End
                      {
                        OFFSET 1.4655 -1.808 0.9609
                        CHANNELS 6 Xposition Yposition Zposition Zrotation Xrotation Yrotation
                        End Site
                        {
                          OFFSET 0.0147 -0.0181 0.0096
                        }
                      }
                    }
                  }
                  JOINT lPinky1
                  {
                    OFFSET 4.9141 -1.269 0.3591
                    CHANNELS 6 Xposition Yposition Zposition Zrotation Xrotation Yrotation
                    JOINT lPinky2
                    {
                      OFFSET 3.1477 -1.685 0.8462
                      CHANNELS 6 Xposition Yposition Zposition Zrotation Xrotation Yrotation
                      JOINT lPinky2_End
                      {
                        OFFSET 0.8055 -1.585 0.7955
                        CHANNELS 6 Xposition Yposition Zposition Zrotation Xrotation Yrotation
                        End Site
                        {
                          OFFSET 0.0081 -0.0158 0.008
                        }
                      }
                    }
                  }
                }
              }
            }
          }
        }
        JOINT rCollar
        {
          OFFSET -1.7069 20.075 5.0056
          CHANNELS 6 Xposition Yposition Zposition Zrotation Xrotation Yrotation
          JOINT rShldr
          {
            OFFSET -13.6458 -0.047 -4.849
            CHANNELS 6 Xposition Yposition Zposition Zrotation Xrotation Yrotation
            JOINT rForeArm
            {
              OFFSET -28.3255 -0.9759 2.2888
              CHANNELS 6 Xposition Yposition Zposition Zrotation Xrotation Yrotation
              JOINT rHand
              {
                OFFSET -22.1583 -0.53 10.8316
                CHANNELS 6 Xposition Yposition Zposition Zrotation Xrotation Yrotation
                JOINT rThumb1
                {
                  OFFSET -0.786 0.112 2.5817
                  CHANNELS 6 Xposition Yposition Zposition Zrotation Xrotation Yrotation
                  JOINT rThumb2
                  {
                    OFFSET -0.3601 -0.878 4.2331
                    CHANNELS 6 Xposition Yposition Zposition Zrotation Xrotation Yrotation
                    JOINT rThumb2_End
                    {
                      OFFSET -1.8127 -1.216 2.2227
                      CHANNELS 6 Xposition Yposition Zposition Zrotation Xrotation Yrotation
                      End Site
                      {
                        OFFSET -0.0181 -0.0122 0.0222
                      }
                    }
                  }
                }
                JOINT rCarpal1
                {
                  OFFSET -0.9571 1.114 1.7695
                  CHANNELS 6 Xposition Yposition Zposition Zrotation Xrotation Yrotation
                  JOINT rIndex1
                  {
                    OFFSET -4.1246 0.487 4.1451
                    CHANNELS 6 Xposition Yposition Zposition Zrotation Xrotation Yrotation
                    JOINT rIndex2
                    {
                      OFFSET -3.4052 -1.454 2.7682
                      CHANNELS 6 Xposition Yposition Zposition Zrotation Xrotation Yrotation
                      JOINT rIndex2_End
                      {
                        OFFSET -1.4531 -1.795 1.2713
                        CHANNELS 6 Xposition Yposition Zposition Zrotation Xrotation Yrotation
                        End Site
                        {
                          OFFSET -0.0145 -0.018 0.0127
                        }
                      }
                    }
                  }
                  JOINT rMid1
                  {
                    OFFSET -5.6954 0.21 2.1184
                    CHANNELS 6 Xposition Yposition Zposition Zrotation Xrotation Yrotation
                    JOINT rMid2
                    {
                      OFFSET -3.9766 -1.54 2.3863
                      CHANNELS 6 Xposition Yposition Zposition Zrotation Xrotation Yrotation
                      JOINT rMid2_End
                      {
                        OFFSET -1.4042 -1.926 1.125
                        CHANNELS 6 Xposition Yposition Zposition Zrotation Xrotation Yrotation
                        End Site
                        {
                          OFFSET -0.014 -0.0193 0.0113
                        }
                      }
                    }
                  }
                }
                JOINT rCarpal2
                {
                  OFFSET -2.0956 0.66 -0.3894
                  CHANNELS 6 Xposition Yposition Zposition Zrotation Xrotation Yrotation
                  JOINT rRing1
                  {
                    OFFSET -5.0395 -0.09 2.4971
                    CHANNELS 6 Xposition Yposition Zposition Zrotation Xrotation Yrotation
                    JOINT rRing2
                    {
                      OFFSET -3.7921 -1.552 1.4806
                      CHANNELS 6 Xposition Yposition Zposition Zrotation Xrotation Yrotation
                      JOINT rRing2_End
                      {
                        OFFSET -1.4655 -1.808 0.9609
                        CHANNELS 6 Xposition Yposition Zposition Zrotation Xrotation Yrotation
                        End Site
                        {
                          OFFSET -0.0147 -0.0181 0.0096
                        }
                      }
                    }
                  }
                  JOINT rPinky1
                  {
                    OFFSET -4.9141 -1.269 0.3592
                    CHANNELS 6 Xposition Yposition Zposition Zrotation Xrotation Yrotation
                    JOINT rPinky2
                    {
                      OFFSET -3.1477 -1.685 0.8462
                      CHANNELS 6 Xposition Yposition Zposition Zrotation Xrotation Yrotation
                      JOINT rPinky2_End
                      {
                        OFFSET -0.8055 -1.585 0.7955
                        CHANNELS 6 Xposition Yposition Zposition Zrotation Xrotation Yrotation
                        End Site
                        {
                          OFFSET -0.0081 -0.0158 0.008
                        }
                      }
                    }
                  }
                }
              }
            }
          }
        }
      }
    }
  }
  JOINT lThigh
  {
    OFFSET 8.367 -8.2066 0.5982
    CHANNELS 6 Xposition Yposition Zposition Zrotation Xrotation Yrotation
    JOINT lShin
    {
      OFFSET 2.1923 -43.463 -0.4932
      CHANNELS 6 Xposition Yposition Zposition Zrotation Xrotation Yrotation
      JOINT lFoot
      {
        OFFSET 0.7333 -45.8593 -2.6451
        CHANNELS 6 Xposition Yposition Zposition Zrotation Xrotation Yrotation
        End Site
        {
          OFFSET 2.6618 -4.2699 12.3931
        }
      }
    }
  }
  JOINT rThigh
  {
    OFFSET -8.367 -8.2066 0.5982
    CHANNELS 6 Xposition Yposition Zposition Zrotation Xrotation Yrotation
    JOINT rShin
    {
      OFFSET -2.1923 -43.463 -0.4931
      CHANNELS 6 Xposition Yposition Zposition Zrotation Xrotation Yrotation
      JOINT rFoot
      {
        OFFSET -0.7333 -45.8593 -2.6451
        CHANNELS 6 Xposition Yposition Zposition Zrotation Xrotation Yrotation
        End Site
        {
          OFFSET -2.6618 -4.2699 12.3931
        }
      }
    }
  }
}
MOTION
Frames:	4
Frame Time:	0.0333333
0 90.174 2.4664 0 0 -0 0 -1.186 -1.5018 0 0 -0 0 9.964 0.2134 0 0 -0 0 13.134 -3.2573 0 0 -0 0 20.686 -1.6905 0 0 -0 0 7.238 -0.1237 0 0 -0 1.7069 20.075 5.0056 0 0 -0 13.6458 -0.047 -4.849 1.66051 0.0835086 5.75766 28.3255 -0.9759 2.2888 -0.0175111 0.895433 15.7816 22.1583 -0.53 10.8316 7.95139e-016 -1.98785e-016 -0 0.786 0.112 2.5817 5.46658e-016 -3.97569e-016 -0 0.3601 -0.878 4.2331 5.96354e-016 0 -0 1.8127 -1.216 2.2227 3.97569e-016 1.98785e-016 9.54166e-015 0.9571 1.114 1.7695 1.49089e-016 -3.97569e-016 -0 4.1246 0.487 4.1451 6.4605e-016 0 3.18055e-015 3.4052 -1.454 2.7682 5.96354e-016 0 3.18055e-015 1.4531 -1.795 1.2713 8.94531e-016 -1.98785e-016 6.36111e-015 5.6954 0.21 2.1184 6.4605e-016 0 3.18055e-015 3.9766 -1.54 2.3863 5.96354e-016 0 3.18055e-015 1.4042 -1.926 1.125 8.94531e-016 -1.98785e-016 6.36111e-015 2.0956 0.66 -0.3894 1.49089e-016 -3.97569e-016 -0 5.0395 -0.09 2.4971 6.4605e-016 0 3.18055e-015 3.7921 -1.552 1.4806 5.96354e-016 0 3.18055e-015 1.4655 -1.808 0.9609 8.94531e-016 -1.98785e-016 6.36111e-015 4.9141 -1.269 0.3591 6.4605e-016 0 3.18055e-015 3.1477 -1.685 0.8462 5.96354e-016 0 3.18055e-015 0.8055 -1.585 0.7955 8.94531e-016 -1.98785e-016 6.36111e-015 -1.7069 20.075 5.0056 0 0 -0 -13.6458 -0.047 -4.849 -1.4496 0.0636048 -5.0245 -28.3255 -0.9759 2.2888 -1.74811 1.20616 -16.8394 -22.1583 -0.53 10.8316 -1.19271e-015 1.98785e-016 -3.18055e-015 -0.786 0.112 2.5817 -3.97569e-016 1.98785e-016 -3.18055e-015 -0.3601 -0.878 4.2331 -2.98177e-016 1.98785e-016 -3.18055e-015 -1.8127 -1.216 2.2227 -2.98177e-016 3.97569e-016 -0 -0.9571 1.114 1.7695 4.96962e-016 0 -6.36111e-015 -4.1246 0.487 4.1451 -9.93923e-017 3.97569e-016 -0 -3.4052 -1.454 2.7682 -8.94531e-016 5.96354e-016 -0 -1.4531 -1.795 1.2713 -3.97569e-016 3.97569e-016 -0 -5.6954 0.21 2.1184 -9.93923e-017 3.97569e-016 -0 -3.9766 -1.54 2.3863 -8.94531e-016 5.96354e-016 -0 -1.4042 -1.926 1.125 -3.97569e-016 3.97569e-016 -0 -2.0956 0.66 -0.3894 4.96962e-016 0 -6.36111e-015 -5.0395 -0.09 2.4971 -9.93923e-017 3.97569e-016 -0 -3.7921 -1.552 1.4806 -8.94531e-016 5.96354e-016 -0 -1.4655 -1.808 0.9609 -3.97569e-016 3.97569e-016 -0 -4.9141 -1.269 0.3592 -9.93923e-017 3.97569e-016 -0 -3.1477 -1.685 0.8462 -8.94531e-016 5.96354e-016 -0 -0.8055 -1.585 0.7955 -3.97569e-016 3.97569e-016 -0 8.367 -8.2066 0.5982 -4.66115 -1.03232 0.120763 2.1923 -43.463 -0.4932 0.00990601 1.55097 0.177175 0.7333 -45.8593 -2.6451 4.65196 -0.54114 -0.255042 -8.367 -8.2066 0.5982 4.66115 -1.03222 -0.120763 -2.1923 -43.463 -0.4931 -0.00990459 1.5509 -0.177176 -0.7333 -45.8593 -2.6451 -4.65196 -0.541171 0.255041 
-23.3547 -1.74132 33.5751 -105.104 6.93879 -101.105 7.10543e-015 -1.186 -1.5018 0.79159 12.2587 -0.696198 0 9.964 0.2134 1.80412 24.5051 -1.62854 7.10543e-015 13.134 -3.2573 1.80412 24.5051 -1.62854 7.10543e-015 20.686 -1.6905 2.03573 10.991 -0.390997 -7.10543e-015 7.238 -0.1237 2.13153 -20.3212 -1.26147 1.7069 20.075 5.0056 -50.6489 17.5386 -17.43 13.6458 -0.047 -4.849 -100.082 -42.8233 176.72 28.3255 -0.9759 2.2888 -37.3902 43.8941 -75.2211 22.1583 -0.53 10.8316 -17.5575 -2.51627 -0.96212 0.786 0.112 2.5817 8.48862e-006 -4.78481e-007 6.35884e-007 0.3601 -0.878 4.2331 6.36111e-015 -7.95139e-016 1.59028e-015 1.8127 -1.216 2.2227 2.57697e-006 6.18775e-007 -2.75961e-006 0.9571 1.114 1.7695 6.36111e-015 7.95139e-016 1.59028e-015 4.1246 0.487 4.1451 8.48862e-006 -4.78481e-007 6.35884e-007 3.4052 -1.454 2.7682 -6.36111e-015 -1.59028e-015 -1.59028e-015 1.4531 -1.795 1.2713 2.57697e-006 6.18775e-007 -2.75961e-006 5.6954 0.21 2.1184 8.48862e-006 -4.78481e-007 6.35884e-007 3.9766 -1.54 2.3863 -6.36111e-015 -1.59028e-015 -1.59028e-015 1.4042 -1.926 1.125 2.57697e-006 6.18775e-007 -2.75961e-006 2.0956 0.66 -0.3894 6.36111e-015 7.95139e-016 1.59028e-015 5.0395 -0.09 2.4971 8.48862e-006 -4.78481e-007 6.35884e-007 3.7921 -1.552 1.4806 -6.36111e-015 -1.59028e-015 -1.59028e-015 1.4655 -1.808 0.9609 2.57697e-006 6.18775e-007 -2.75961e-006 4.9141 -1.269 0.3591 8.48862e-006 -4.78481e-007 6.35884e-007 3.1477 -1.685 0.8462 -6.36111e-015 -1.59028e-015 -1.59028e-015 0.8055 -1.585 0.7955 2.57697e-006 6.18775e-007 -2.75961e-006 -1.7069 20.075 5.0056 -6.64999 6.78237 -2.77641 -13.6458 -0.047 -4.849 56.6914 32.5089 18.6196 -28.3255 -0.9759 2.2888 47.3753 -11.6896 90.128 -22.1583 -0.53 10.8316 23.439 8.11693 16.6808 -0.786 0.112 2.5817 8.94778e-007 -9.14349e-007 -1.1195e-006 -0.3601 -0.878 4.2331 5.69958e-006 -3.64194e-006 9.41049e-007 -1.8127 -1.216 2.2227 8.94778e-007 -9.14349e-007 -1.1195e-006 -0.9571 1.114 1.7695 -1.76556e-031 -6.36111e-015 -1.59028e-015 -4.1246 0.487 4.1451 8.94778e-007 -9.14349e-007 -1.1195e-006 -3.4052 -1.454 2.7682 5.69958e-006 -3.64194e-006 9.41049e-007 -1.4531 -1.795 1.2713 8.94778e-007 -9.14349e-007 -1.1195e-006 -5.6954 0.21 2.1184 8.94778e-007 -9.14349e-007 -1.1195e-006 -3.9766 -1.54 2.3863 5.69958e-006 -3.64194e-006 9.41049e-007 -1.4042 -1.926 1.125 8.94778e-007 -9.14349e-007 -1.1195e-006 -2.0956 0.66 -0.3894 -1.76556e-031 -6.36111e-015 -1.59028e-015 -5.0395 -0.09 2.4971 8.94778e-007 -9.14349e-007 -1.1195e-006 -3.7921 -1.552 1.4806 5.69958e-006 -3.64194e-006 9.41049e-007 -1.4655 -1.808 0.9609 8.94778e-007 -9.14349e-007 -1.1195e-006 -4.9141 -1.269 0.3592 8.94778e-007 -9.14349e-007 -1.1195e-006 -3.1477 -1.685 0.8462 5.69958e-006 -3.64194e-006 9.41049e-007 -0.8055 -1.585 0.7955 8.94778e-007 -9.14349e-007 -1.1195e-006 8.367 -8.2066 0.5982 21.4601 -16.3424 -6.5513 2.1923 -43.463 -0.4932 105.151 89.4154 -99.9453 0.7333 -45.8593 -2.6451 -25.9805 32.2082 6.5914 -8.367 -8.2066 0.5982 2.31693 2.36661 24.8079 -2.1923 -43.463 -0.4931 0.0225111 37.9616 -2.23439 -0.7333 -45.8593 -2.6451 22.1361 32.9997 0.44947 
-23.3552 -1.74106 33.5751 -105.104 6.93879 -101.105 7.10543e-015 -1.186 -1.5018 0.79156 12.2587 -0.696206 -7.10543e-015 9.964 0.2134 1.80412 24.5051 -1.62855 7.10543e-015 13.134 -3.2573 1.80412 24.5051 -1.62854 -7.10543e-015 20.686 -1.6905 2.03563 10.9909 -0.390914 7.10543e-015 7.238 -0.1237 1.82607 -20.4617 -1.64699 1.7069 20.075 5.0056 -50.6489 17.5386 -17.43 13.6458 -0.047 -4.849 -100.082 -42.8233 176.72 28.3255 -0.9759 2.2888 -37.3901 43.8941 -75.2211 22.1583 -0.53 10.8316 -17.5575 -2.51626 -0.962112 0.786 0.112 2.5817 2.28113e-006 1.01542e-006 -1.96318e-006 0.3601 -0.878 4.2331 6.20749e-006 -1.4939e-006 2.59907e-006 1.8127 -1.216 2.2227 4.31196e-006 -3.54683e-006 -4.4725e-006 0.9571 1.114 1.7695 -6.36111e-015 7.95139e-016 1.59028e-015 4.1246 0.487 4.1451 2.28113e-006 1.01542e-006 -1.96318e-006 3.4052 -1.454 2.7682 6.20749e-006 -1.4939e-006 2.59907e-006 1.4531 -1.795 1.2713 4.31196e-006 -3.54683e-006 -4.4725e-006 5.6954 0.21 2.1184 2.28113e-006 1.01542e-006 -1.96318e-006 3.9766 -1.54 2.3863 6.20749e-006 -1.4939e-006 2.59907e-006 1.4042 -1.926 1.125 4.31196e-006 -3.54683e-006 -4.4725e-006 2.0956 0.66 -0.3894 -6.36111e-015 7.95139e-016 1.59028e-015 5.0395 -0.09 2.4971 2.28113e-006 1.01542e-006 -1.96318e-006 3.7921 -1.552 1.4806 6.20749e-006 -1.4939e-006 2.59907e-006 1.4655 -1.808 0.9609 4.31196e-006 -3.54683e-006 -4.4725e-006 4.9141 -1.269 0.3591 2.28113e-006 1.01542e-006 -1.96318e-006 3.1477 -1.685 0.8462 6.20749e-006 -1.4939e-006 2.59907e-006 0.8055 -1.585 0.7955 4.31196e-006 -3.54683e-006 -4.4725e-006 -1.7069 20.075 5.0056 -6.65 6.78237 -2.77641 -13.6458 -0.047 -4.849 56.6914 32.5089 18.6196 -28.3255 -0.9759 2.2888 46.5295 -11.067 90.4365 -22.1583 -0.53 10.8316 21.5938 7.42647 16.9169 -0.786 0.112 2.5817 -8.97484e-007 9.04236e-007 1.12326e-006 -0.3601 -0.878 4.2331 8.97484e-007 -9.04236e-007 -1.12326e-006 -1.8127 -1.216 2.2227 -8.97484e-007 9.04236e-007 1.12326e-006 -0.9571 1.114 1.7695 0 0 -6.36111e-015 -4.1246 0.487 4.1451 -8.97484e-007 9.04236e-007 1.12326e-006 -3.4052 -1.454 2.7682 8.97484e-007 -9.04236e-007 -1.12326e-006 -1.4531 -1.795 1.2713 -8.97484e-007 9.04236e-007 1.12326e-006 -5.6954 0.21 2.1184 -8.97484e-007 9.04236e-007 1.12326e-006 -3.9766 -1.54 2.3863 8.97484e-007 -9.04236e-007 -1.12326e-006 -1.4042 -1.926 1.125 -8.97484e-007 9.04236e-007 1.12326e-006 -2.0956 0.66 -0.3894 0 0 -6.36111e-015 -5.0395 -0.09 2.4971 -8.97484e-007 9.04236e-007 1.12326e-006 -3.7921 -1.552 1.4806 8.97484e-007 -9.04236e-007 -1.12326e-006 -1.4655 -1.808 0.9609 -8.97484e-007 9.04236e-007 1.12326e-006 -4.9141 -1.269 0.3592 -8.97484e-007 9.04236e-007 1.12326e-006 -3.1477 -1.685 0.8462 8.97484e-007 -9.04236e-007 -1.12326e-006 -0.8055 -1.585 0.7955 -8.97484e-007 9.04236e-007 1.12326e-006 8.367 -8.2066 0.5982 21.548 -16.3482 -6.45688 2.1923 -43.463 -0.4932 105.016 89.4157 -99.8093 0.7333 -45.8593 -2.6451 -25.9783 32.2054 6.59025 -8.367 -8.2066 0.5982 2.31745 2.27836 24.8124 -2.1923 -43.463 -0.4931 0.0626404 38.0429 -2.24006 -0.7333 -45.8593 -2.6451 22.136 32.9988 0.449822 
-23.3557 -1.74081 33.5751 -105.104 6.93879 -101.105 0 -1.186 -1.5018 0.791591 12.2587 -0.696213 -7.10543e-015 9.964 0.2134 1.80413 24.5051 -1.62854 7.10543e-015 13.134 -3.2573 1.80413 24.5051 -1.62856 0 20.686 -1.6905 2.035 10.9909 -0.390824 0 7.238 -0.1237 1.51889 -20.6004 -2.03417 1.7069 20.075 5.0056 -50.6489 17.5386 -17.43 13.6458 -0.047 -4.849 -100.082 -42.8233 176.72 28.3255 -0.9759 2.2888 -37.3902 43.8941 -75.2211 22.1583 -0.53 10.8316 -17.5574 -2.51627 -0.962119 0.786 0.112 2.5817 4.24431e-006 -2.39241e-007 3.17941e-007 0.3601 -0.878 4.2331 3.18055e-015 1.59028e-015 1.59028e-015 1.8127 -1.216 2.2227 -2.95845e-007 3.96641e-007 7.96423e-007 0.9571 1.114 1.7695 -3.18055e-015 1.59028e-015 1.59028e-015 4.1246 0.487 4.1451 4.24431e-006 -2.39241e-007 3.17941e-007 3.4052 -1.454 2.7682 3.18055e-015 1.59028e-015 -0 1.4531 -1.795 1.2713 -2.95845e-007 3.96641e-007 7.96423e-007 5.6954 0.21 2.1184 4.24431e-006 -2.39241e-007 3.17941e-007 3.9766 -1.54 2.3863 3.18055e-015 1.59028e-015 -0 1.4042 -1.926 1.125 -2.95845e-007 3.96641e-007 7.96423e-007 2.0956 0.66 -0.3894 -3.18055e-015 1.59028e-015 1.59028e-015 5.0395 -0.09 2.4971 4.24431e-006 -2.39241e-007 3.17941e-007 3.7921 -1.552 1.4806 3.18055e-015 1.59028e-015 -0 1.4655 -1.808 0.9609 -2.95845e-007 3.96641e-007 7.96423e-007 4.9141 -1.269 0.3591 4.24431e-006 -2.39241e-007 3.17941e-007 3.1477 -1.685 0.8462 3.18055e-015 1.59028e-015 -0 0.8055 -1.585 0.7955 -2.95845e-007 3.96641e-007 7.96423e-007 -1.7069 20.075 5.0056 -6.65 6.78239 -2.77639 -13.6458 -0.047 -4.849 56.6914 32.5089 18.6197 -28.3255 -0.9759 2.2888 45.6797 -10.4473 90.7545 -22.1583 -0.53 10.8316 19.7388 6.72293 17.1318 -0.786 0.112 2.5817 9.54166e-015 3.18055e-015 -3.18055e-015 -0.3601 -0.878 4.2331 8.99812e-007 -8.94069e-007 -1.127e-006 -1.8127 -1.216 2.2227 9.54166e-015 9.54166e-015 3.18055e-015 -0.9571 1.114 1.7695 6.36111e-015 0 -1.59028e-015 -4.1246 0.487 4.1451 9.54166e-015 6.36111e-015 1.74931e-014 -3.4052 -1.454 2.7682 8.99812e-007 -8.94069e-007 -1.127e-006 -1.4531 -1.795 1.2713 -3.18055e-015 6.36111e-015 4.77083e-015 -5.6954 0.21 2.1184 9.54166e-015 6.36111e-015 1.74931e-014 -3.9766 -1.54 2.3863 8.99812e-007 -8.94069e-007 -1.127e-006 -1.4042 -1.926 1.125 -3.18055e-015 6.36111e-015 4.77083e-015 -2.0956 0.66 -0.3894 6.36111e-015 0 -1.59028e-015 -5.0395 -0.09 2.4971 9.54166e-015 6.36111e-015 1.74931e-014 -3.7921 -1.552 1.4806 8.99812e-007 -8.94069e-007 -1.127e-006 -1.4655 -1.808 0.9609 -3.18055e-015 6.36111e-015 4.77083e-015 -4.9141 -1.269 0.3592 9.54166e-015 6.36111e-015 1.74931e-014 -3.1477 -1.685 0.8462 8.99812e-007 -8.94069e-007 -1.127e-006 -0.8055 -1.585 0.7955 -3.18055e-015 6.36111e-015 4.77083e-015 8.367 -8.2066 0.5982 21.6359 -16.3541 -6.36241 2.1923 -43.463 -0.4932 104.889 89.416 -99.6816 0.7333 -45.8593 -2.6451 -25.976 32.2026 6.58912 -8.367 -8.2066 0.5982 2.31756 2.30141 24.8112 -2.1923 -43.463 -0.4931 0.0519537 38.023 -2.23848 -0.7333 -45.8593 -2.6451 22.1358 32.9979 0.45014 
